<svg width="167" height="76" viewBox="0 0 167 76" fill="none" xmlns="http://www.w3.org/2000/svg">
<path d="M47.4141 14.4961C47.4141 16.5586 47.0273 18.4922 46.2539 20.2969C45.4805 22.1016 44.4349 23.763 43.1172 25.2812C41.8281 26.7708 40.3242 28.1172 38.6055 29.3203C36.8867 30.5234 35.082 31.5404 33.1914 32.3711C31.3008 33.1732 29.3672 33.8034 27.3906 34.2617C25.4427 34.6914 23.5807 34.9062 21.8047 34.9062H21.5469V34.0469C24.125 33.7318 26.6172 32.944 29.0234 31.6836C31.4583 30.3945 33.6068 28.776 35.4688 26.8281C37.3594 24.8802 38.8633 22.6745 39.9805 20.2109C41.1263 17.7474 41.6992 15.1693 41.6992 12.4766C41.6992 11.0156 41.4987 9.69792 41.0977 8.52344C40.7253 7.32031 40.1523 6.30339 39.3789 5.47266C38.6341 4.61328 37.6888 3.95443 36.543 3.49609C35.3971 3.03776 34.0651 2.80859 32.5469 2.80859C29.4818 2.80859 26.7031 3.46745 24.2109 4.78516C21.7474 6.07422 19.556 7.80729 17.6367 9.98438C15.7174 12.1328 14.056 14.6107 12.6523 17.418C11.2773 20.2253 10.1315 23.1471 9.21484 26.1836C8.32682 29.2201 7.66797 32.2708 7.23828 35.3359C6.80859 38.3724 6.59375 41.194 6.59375 43.8008C6.59375 45.8919 6.72266 48.0117 6.98047 50.1602C7.26693 52.2799 7.71094 54.3281 8.3125 56.3047C8.91406 58.2812 9.6875 60.1289 10.6328 61.8477C11.5781 63.5951 12.7096 65.1133 14.0273 66.4023C15.3737 67.6914 16.9206 68.7083 18.668 69.4531C20.4154 70.1979 22.4062 70.5703 24.6406 70.5703C26.1875 70.5703 27.6771 70.2839 29.1094 69.7109C30.5417 69.138 31.888 68.3789 33.1484 67.4336C34.4089 66.4883 35.5404 65.4141 36.543 64.2109C37.5742 63.0078 38.4479 61.776 39.1641 60.5156L39.6797 60.7734C39.1927 62.5495 38.362 64.2969 37.1875 66.0156C36.013 67.7344 34.6094 69.2526 32.9766 70.5703C31.3724 71.9167 29.6107 72.9909 27.6914 73.793C25.8008 74.6237 23.8958 75.0391 21.9766 75.0391C19.4271 75.0391 17.1211 74.638 15.0586 73.8359C12.9961 73.0625 11.1484 71.974 9.51562 70.5703C7.91146 69.1953 6.52214 67.5625 5.34766 65.6719C4.17318 63.8099 3.19922 61.7904 2.42578 59.6133C1.65234 57.4076 1.07943 55.1159 0.707031 52.7383C0.334635 50.332 0.148438 47.9258 0.148438 45.5195C0.148438 42.3685 0.477865 39.0742 1.13672 35.6367C1.79557 32.1992 2.76953 28.819 4.05859 25.4961C5.34766 22.1732 6.92318 19.0221 8.78516 16.043C10.6758 13.0352 12.8385 10.3997 15.2734 8.13672C17.7083 5.84505 20.401 4.04036 23.3516 2.72266C26.3307 1.3763 29.5391 0.703125 32.9766 0.703125C35.125 0.703125 37.0872 1.01823 38.8633 1.64844C40.6393 2.25 42.1576 3.13802 43.418 4.3125C44.707 5.48698 45.6953 6.93359 46.3828 8.65234C47.0703 10.3424 47.4141 12.2904 47.4141 14.4961ZM62.9688 37.4844C62.9688 37.7995 62.8542 38.0859 62.625 38.3438C62.3958 38.5729 62.1237 38.6875 61.8086 38.6875C61.5508 38.6875 61.2786 38.6159 60.9922 38.4727C60.7057 38.3008 60.3763 38.1146 60.0039 37.9141C59.6602 37.7135 59.2448 37.5417 58.7578 37.3984C58.2995 37.2266 57.7695 37.1406 57.168 37.1406C55.7643 37.1406 54.5039 37.5846 53.3867 38.4727C52.2982 39.332 51.3672 40.4062 50.5938 41.6953C49.849 42.9844 49.276 44.3594 48.875 45.8203C48.474 47.2812 48.2734 48.599 48.2734 49.7734C48.2734 50.6042 48.3451 51.4206 48.4883 52.2227C48.6315 52.9961 48.875 53.7122 49.2188 54.3711C49.5911 55.0013 50.0924 55.5169 50.7227 55.918C51.3529 56.2904 52.1549 56.4766 53.1289 56.4766C54.1602 56.4766 55.1484 56.2904 56.0938 55.918C57.0391 55.5169 57.9271 55.0013 58.7578 54.3711C58.7865 53.4544 58.9297 52.4948 59.1875 51.4922C59.474 50.4609 59.832 49.4583 60.2617 48.4844C60.6914 47.4818 61.1784 46.5365 61.7227 45.6484C62.2956 44.7604 62.8828 43.9727 63.4844 43.2852L64.043 43.6289C63.7279 44.6029 63.4987 45.6055 63.3555 46.6367C63.2122 47.668 63.1406 48.6849 63.1406 49.6875C63.1406 50.7188 63.2266 51.6927 63.3984 52.6094C63.5703 53.526 63.8711 54.3281 64.3008 55.0156C64.7305 55.6745 65.3177 56.2044 66.0625 56.6055C66.8073 56.9779 67.7669 57.1641 68.9414 57.1641C70.3737 57.1641 71.6914 56.8346 72.8945 56.1758C74.0977 55.5169 75.1576 54.6862 76.0742 53.6836L76.418 53.8555C75.9023 54.8581 75.2292 55.8177 74.3984 56.7344C73.5677 57.651 72.6367 58.4818 71.6055 59.2266C70.6029 59.9427 69.5286 60.5156 68.3828 60.9453C67.237 61.375 66.1055 61.5898 64.9883 61.5898C63.4128 61.5898 62.1237 61.1315 61.1211 60.2148C60.1185 59.3268 59.431 58.1953 59.0586 56.8203C57.8555 58.0234 56.5091 59.0404 55.0195 59.8711C53.5586 60.6732 52.0117 61.0742 50.3789 61.0742C49.1758 61.0742 48.1016 60.8451 47.1562 60.3867C46.2396 59.957 45.4661 59.3698 44.8359 58.625C44.2057 57.8802 43.7188 57.0065 43.375 56.0039C43.0599 54.9727 42.9023 53.8984 42.9023 52.7812C42.9023 51.4922 43.1029 50.1745 43.5039 48.8281C43.9336 47.4531 44.5065 46.1068 45.2227 44.7891C45.9674 43.4714 46.8411 42.2253 47.8438 41.0508C48.8464 39.8763 49.9349 38.8451 51.1094 37.957C52.3125 37.069 53.5729 36.3672 54.8906 35.8516C56.2083 35.3359 57.5547 35.0781 58.9297 35.0781C59.2448 35.0781 59.6315 35.1211 60.0898 35.207C60.5482 35.2643 60.9922 35.3789 61.4219 35.5508C61.8516 35.7227 62.2096 35.9661 62.4961 36.2812C62.8112 36.5964 62.9688 36.9974 62.9688 37.4844ZM107.398 53.8555C106.883 55.0013 106.224 56.0326 105.422 56.9492C104.648 57.8659 103.803 58.6536 102.887 59.3125C101.97 59.9427 101.025 60.4297 100.051 60.7734C99.0768 61.1458 98.1458 61.332 97.2578 61.332C95.5964 61.332 94.1927 61.0456 93.0469 60.4727C91.901 59.8997 90.9701 59.1263 90.2539 58.1523C89.5378 57.1784 89.0221 56.0326 88.707 54.7148C88.3919 53.3971 88.2344 51.9935 88.2344 50.5039C88.2344 49.3581 88.3203 48.1693 88.4922 46.9375C88.6641 45.7057 88.9076 44.5169 89.2227 43.3711C89.2799 43.1992 89.3372 42.9987 89.3945 42.7695C89.4518 42.5117 89.4805 42.2969 89.4805 42.125C89.4805 41.9818 89.3945 41.8672 89.2227 41.7812C88.7357 41.6094 88.2201 41.4518 87.6758 41.3086C87.1315 41.1367 86.5872 40.9505 86.043 40.75C85.5273 40.5495 85.026 40.3203 84.5391 40.0625C84.0807 39.8047 83.6797 39.4753 83.3359 39.0742C83.3073 40.793 83.0208 42.5404 82.4766 44.3164C81.9323 46.0638 81.2018 47.7539 80.2852 49.3867C79.3971 50.9909 78.3516 52.4948 77.1484 53.8984C75.9453 55.3021 74.6706 56.5195 73.3242 57.5508L72.8945 57.1211C73.7253 56.2044 74.4844 55.1159 75.1719 53.8555C75.8594 52.5951 76.4466 51.2773 76.9336 49.9023C77.4206 48.5273 77.793 47.138 78.0508 45.7344C78.3372 44.3307 78.4805 43.013 78.4805 41.7812C78.4805 41.151 78.4232 40.5638 78.3086 40.0195C78.194 39.4466 78.0651 38.9023 77.9219 38.3867C77.8073 37.8711 77.6927 37.3841 77.5781 36.9258C77.4635 36.4388 77.4062 35.9518 77.4062 35.4648C77.4062 34.6628 77.6641 34.0326 78.1797 33.5742C78.6953 33.1159 79.3542 32.8867 80.1562 32.8867C80.5859 32.8867 80.9154 33.0156 81.1445 33.2734C81.3737 33.5026 81.5742 33.7891 81.7461 34.1328C81.918 34.4766 82.1185 34.8346 82.3477 35.207C82.5768 35.5794 82.9062 35.8945 83.3359 36.1523C83.8802 36.4674 84.5677 36.6966 85.3984 36.8398C86.2292 36.9831 87.1029 37.112 88.0195 37.2266C88.9362 37.3411 89.8529 37.4557 90.7695 37.5703C91.6862 37.6849 92.5026 37.8854 93.2188 38.1719C93.9635 38.4297 94.5651 38.8021 95.0234 39.2891C95.4818 39.7474 95.7109 40.3776 95.7109 41.1797C95.7109 41.5807 95.668 41.9818 95.582 42.3828C95.5247 42.7552 95.4245 43.1133 95.2812 43.457C94.9375 44.6602 94.6367 45.8919 94.3789 47.1523C94.1497 48.3841 94.0352 49.6159 94.0352 50.8477C94.0352 51.9076 94.1068 52.8815 94.25 53.7695C94.4219 54.6289 94.7227 55.3737 95.1523 56.0039C95.582 56.6341 96.1549 57.1211 96.8711 57.4648C97.5872 57.8086 98.5039 57.9805 99.6211 57.9805C101.225 57.9805 102.629 57.5938 103.832 56.8203C105.035 56.0182 106.095 54.9727 107.012 53.6836L107.398 53.8555ZM145.039 53.8555C144.581 54.8008 144.008 55.6602 143.32 56.4336C142.633 57.1784 141.859 57.8229 141 58.3672C140.141 58.8828 139.224 59.2839 138.25 59.5703C137.276 59.8568 136.259 60 135.199 60C132.965 60 131.06 59.4557 129.484 58.3672C127.938 57.2786 126.634 55.8607 125.574 54.1133C124.801 54.9727 123.941 55.832 122.996 56.6914C122.079 57.5221 121.091 58.2669 120.031 58.9258C119 59.556 117.926 60.0716 116.809 60.4727C115.691 60.8737 114.574 61.0742 113.457 61.0742C112.111 61.0742 110.908 60.8021 109.848 60.2578C108.788 59.7135 107.885 58.9974 107.141 58.1094C106.396 57.1927 105.823 56.1615 105.422 55.0156C105.021 53.8411 104.82 52.6237 104.82 51.3633C104.82 49.4727 105.236 47.5677 106.066 45.6484C106.926 43.7292 108.043 41.9961 109.418 40.4492C110.822 38.8737 112.426 37.599 114.23 36.625C116.035 35.651 117.911 35.1641 119.859 35.1641C120.432 35.1641 120.934 35.2214 121.363 35.3359V33.5312C121.363 32.7005 121.392 31.5977 121.449 30.2227C121.507 28.8477 121.621 27.3294 121.793 25.668C121.965 23.9779 122.18 22.2161 122.438 20.3828C122.724 18.5208 123.082 16.6875 123.512 14.8828C123.97 13.0495 124.5 11.3164 125.102 9.68359C125.703 8.02214 126.405 6.57552 127.207 5.34375C128.009 4.08333 128.926 3.08073 129.957 2.33594C130.988 1.59115 132.148 1.21875 133.438 1.21875C134.956 1.21875 136.188 1.66276 137.133 2.55078C138.078 3.4388 138.823 4.54167 139.367 5.85938C139.911 7.14844 140.27 8.52344 140.441 9.98438C140.642 11.4453 140.742 12.7487 140.742 13.8945C140.742 15.3841 140.599 17.1172 140.312 19.0938C140.026 21.0417 139.625 23.1185 139.109 25.3242C138.594 27.5013 137.978 29.7357 137.262 32.0273C136.546 34.319 135.772 36.5247 134.941 38.6445C134.111 40.7643 133.208 42.7409 132.234 44.5742C131.289 46.3789 130.329 47.9115 129.355 49.1719C129.728 50.2891 130.172 51.3203 130.688 52.2656C131.232 53.2109 131.862 54.0273 132.578 54.7148C133.294 55.4023 134.111 55.9466 135.027 56.3477C135.944 56.7201 136.99 56.9062 138.164 56.9062C140.857 56.9062 143.062 55.832 144.781 53.6836L145.039 53.8555ZM127.422 29.9219C127.422 30.9531 127.422 32.1562 127.422 33.5312C127.422 34.8776 127.451 36.3099 127.508 37.8281C127.594 39.3464 127.723 40.9076 127.895 42.5117C128.095 44.0872 128.382 45.6198 128.754 47.1094C129.957 44.7891 131.06 42.2539 132.062 39.5039C133.065 36.7253 133.924 33.8893 134.641 30.9961C135.385 28.0742 135.958 25.1667 136.359 22.2734C136.76 19.3802 136.961 16.6445 136.961 14.0664C136.961 13.5221 136.932 12.7344 136.875 11.7031C136.818 10.6719 136.66 9.65495 136.402 8.65234C136.145 7.62109 135.758 6.73307 135.242 5.98828C134.727 5.21484 134.025 4.82812 133.137 4.82812C132.449 4.82812 131.833 5.15755 131.289 5.81641C130.745 6.44661 130.272 7.30599 129.871 8.39453C129.47 9.45443 129.126 10.6719 128.84 12.0469C128.582 13.4219 128.353 14.8542 128.152 16.3438C127.98 17.8333 127.837 19.3086 127.723 20.7695C127.637 22.2305 127.565 23.5911 127.508 24.8516C127.479 26.0833 127.451 27.1576 127.422 28.0742C127.422 28.9622 127.422 29.5781 127.422 29.9219ZM116.594 56.3906C118.227 56.3906 119.73 56.0755 121.105 55.4453C122.509 54.8151 123.784 53.9844 124.93 52.9531C124.385 51.8932 123.913 50.7617 123.512 49.5586C123.139 48.3268 122.81 47.0951 122.523 45.8633C122.266 44.6029 122.051 43.3424 121.879 42.082C121.736 40.8216 121.621 39.6042 121.535 38.4297C121.191 38.0573 120.762 37.7565 120.246 37.5273C119.73 37.2695 119.1 37.1406 118.355 37.1406C117.009 37.1406 115.806 37.513 114.746 38.2578C113.715 38.974 112.841 39.8906 112.125 41.0078C111.409 42.0964 110.865 43.2995 110.492 44.6172C110.12 45.9062 109.934 47.138 109.934 48.3125C109.934 49.401 110.048 50.4466 110.277 51.4492C110.535 52.4232 110.936 53.2826 111.48 54.0273C112.025 54.7435 112.712 55.3164 113.543 55.7461C114.402 56.1758 115.419 56.3906 116.594 56.3906ZM166.953 50.7617C166.953 52.2513 166.681 53.6549 166.137 54.9727C165.592 56.2904 164.833 57.4362 163.859 58.4102C162.885 59.3841 161.74 60.1576 160.422 60.7305C159.133 61.3034 157.729 61.5898 156.211 61.5898C155.208 61.5898 154.22 61.4323 153.246 61.1172C152.272 60.8021 151.37 60.3581 150.539 59.7852C149.737 59.1836 149.035 58.4674 148.434 57.6367C147.832 56.806 147.402 55.8893 147.145 54.8867L148.133 54.6289C148.878 55.5456 149.737 56.3047 150.711 56.9062C151.714 57.5078 152.845 57.8086 154.105 57.8086C155.165 57.8086 156.139 57.5794 157.027 57.1211C157.944 56.6628 158.717 56.0612 159.348 55.3164C160.007 54.5716 160.508 53.7122 160.852 52.7383C161.224 51.7357 161.41 50.7188 161.41 49.6875C161.41 48.4557 161.238 47.4388 160.895 46.6367C160.551 45.806 160.092 45.1185 159.52 44.5742C158.975 44.0013 158.359 43.5143 157.672 43.1133C156.984 42.6836 156.283 42.2539 155.566 41.8242C154.879 41.3945 154.206 40.9076 153.547 40.3633C152.917 39.819 152.372 39.1172 151.914 38.2578C151.885 39.9479 151.599 41.724 151.055 43.5859C150.51 45.4479 149.766 47.2526 148.82 49C147.904 50.7474 146.844 52.3802 145.641 53.8984C144.438 55.4167 143.163 56.6914 141.816 57.7227L141.473 57.1211C142.389 56.1471 143.191 54.9297 143.879 53.4688C144.566 52.0078 145.125 50.4753 145.555 48.8711C146.013 47.2383 146.342 45.6055 146.543 43.9727C146.772 42.3398 146.887 40.8503 146.887 39.5039C146.887 38.7878 146.815 38.0859 146.672 37.3984C146.529 36.7109 146.457 36.0378 146.457 35.3789C146.457 34.5768 146.686 33.9609 147.145 33.5312C147.632 33.1016 148.247 32.8867 148.992 32.8867C149.565 32.8867 150.023 33.0156 150.367 33.2734C150.711 33.5312 151.026 33.875 151.312 34.3047C151.599 34.7057 151.885 35.1784 152.172 35.7227C152.458 36.2383 152.816 36.7826 153.246 37.3555C153.704 37.8997 154.263 38.444 154.922 38.9883C155.609 39.5039 156.483 39.9622 157.543 40.3633C158.775 40.8216 159.949 41.3516 161.066 41.9531C162.212 42.526 163.215 43.2135 164.074 44.0156C164.962 44.8177 165.664 45.7773 166.18 46.8945C166.695 47.9831 166.953 49.2721 166.953 50.7617Z" fill="white"/>
</svg>
